<svg xmlns="http://www.w3.org/2000/svg" fill="#828282" viewBox="0 0 48 48"><path d="M11.996 23A2.004 2.004 0 0 0 10 24.998a2 2 0 1 0 4 0A2.004 2.004 0 0 0 11.996 23zm6 0A2.004 2.004 0 0 0 16 24.998a2 2 0 1 0 4 0A2.004 2.004 0 0 0 17.996 23zm6 0A2.004 2.004 0 0 0 22 24.998a2 2 0 1 0 4 0A2.004 2.004 0 0 0 23.996 23zM40.371 8H22.07c-2.004 0-3.629 1.637-3.629 3.657v3.756H8.629c-2.001 0-3.625 1.633-3.629 3.65V31.4c0 2.02 1.625 3.657 3.629 3.657h.046l.053 4.798a1.16 1.16 0 0 0 .724 1.062c.432.174.926.069 1.251-.266l5.374-5.581H26.93c2.004 0 3.629-1.637 3.629-3.657v-3.769h1.936l5.657 5.84c.326.335.819.44 1.251.266a1.16 1.16 0 0 0 .724-1.062l.072-5.044h.171c2.004 0 3.629-1.637 3.629-3.657v-12.33C44 9.637 42.375 8 40.371 8zM28.247 25.321V31.4c0 .733-.59 1.327-1.317 1.327H15.59a1.15 1.15 0 0 0-.83.352l-3.754 3.909-.04-3.106a1.157 1.157 0 0 0-1.152-1.148H8.629a1.322 1.322 0 0 1-1.317-1.327V19.063c0-.733.59-1.327 1.317-1.327H26.93c.727 0 1.317.594 1.317 1.327v6.258zm13.441-1.327c0 .733-.59 1.327-1.317 1.327h-1.317a1.157 1.157 0 0 0-1.126 1.148l-.046 3.391-4.057-4.188a1.15 1.15 0 0 0-.823-.352h-2.443v-6.258c0-2.02-1.625-3.657-3.629-3.657h-6.177v-3.75c0-.733.59-1.327 1.317-1.327h18.308c.727 0 1.317.594 1.317 1.327l-.007 12.337z"/></svg>