<svg xmlns="http://www.w3.org/2000/svg" viewBox="0 0 884 405" preserveAspectRatio="xMinYMin meet"><rect fill="none" x=".16" width="883.57" height="404.91" rx="18.34"/><path fill="#777" d="M237 154.52Q231.62 131 216.86 121t-38.54-10q-16.81 0-29 6.66a58.32 58.32 0 0 0-20 17.92 78.82 78.82 0 0 0-11.64 26 125.91 125.91 0 0 0-3.75 31.11 140.72 140.72 0 0 0 3.24 30.21 79.83 79.83 0 0 0 10.73 26.5 56.64 56.64 0 0 0 20.18 18.82q12.66 7.17 31.81 7.16a59.48 59.48 0 0 0 21.73-3.83 54.38 54.38 0 0 0 17.2-10.63 61.73 61.73 0 0 0 12.42-16 80.42 80.42 0 0 0 7.63-20.23h18.36a114 114 0 0 1-9 25.22A70.12 70.12 0 0 1 209 285q-13.84 5.24-32.46 5.25-21.48 0-36.73-7.82a69.44 69.44 0 0 1-25-21.12 88.12 88.12 0 0 1-14.09-30.84 152.38 152.38 0 0 1-4.4-37.26q0-26.37 6.6-44.8t18.23-30.08a68.94 68.94 0 0 1 27.42-16.9A108.45 108.45 0 0 1 183 96.15a91.49 91.49 0 0 1 26.51 3.71A65.55 65.55 0 0 1 231.22 111a60.62 60.62 0 0 1 15.52 18.31 76.07 76.07 0 0 1 8.4 25.21zm44.46 133.98V95.12h16.28V288.5zM417 149.37h16.29V288.5H417v-19.34c-2.17 2.52-4.61 5.1-7.32 7.79a56.06 56.06 0 0 1-9.36 7.39A53.71 53.71 0 0 1 388 290a53.13 53.13 0 0 1-16.28 2.28q-14.12 0-23.61-3.9a38.4 38.4 0 0 1-15.33-10.87 42.5 42.5 0 0 1-8.41-16.25 74.88 74.88 0 0 1-2.58-20.26v-91.63h16.29v91.32q0 18 8.41 27.53t27.68 9.53a40.55 40.55 0 0 0 18-3.89A37.44 37.44 0 0 0 405.64 263a51.75 51.75 0 0 0 8.42-16.66 71.51 71.51 0 0 0 3-21.21zm56.66 139.13h-16.28V95.12h16.28v76.55a50.17 50.17 0 0 1 21.57-19.48 65.41 65.41 0 0 1 28.63-6.57q16 0 27.81 6a57 57 0 0 1 19.54 16.11 68.9 68.9 0 0 1 11.53 23.5 102.21 102.21 0 0 1 3.8 27.93 112.17 112.17 0 0 1-3.54 28.78 62.65 62.65 0 0 1-11.26 23.24 53.76 53.76 0 0 1-19.67 15.44q-11.94 5.64-29 5.64a53.45 53.45 0 0 1-13.84-1.88A65.26 65.26 0 0 1 495.5 285a54.5 54.5 0 0 1-12.21-8.73 43.63 43.63 0 0 1-9.09-12.22h-.54zm0-70.1a84.83 84.83 0 0 0 3.11 23.5 57.2 57.2 0 0 0 9.09 18.8 42.72 42.72 0 0 0 14.93 12.49 44.15 44.15 0 0 0 20.35 4.56 48.91 48.91 0 0 0 19-3.62 43.47 43.47 0 0 0 15.2-10.61 49.43 49.43 0 0 0 10.17-17 67.51 67.51 0 0 0 3.66-23.24 90.17 90.17 0 0 0-2.17-24.62 58.22 58.22 0 0 0-8.68-20A42.74 42.74 0 0 0 543 165.09q-9.36-5-21.85-5a41.78 41.78 0 0 0-19.94 4.7 45.82 45.82 0 0 0-14.92 12.62 57.67 57.67 0 0 0-9.38 18.59 75.85 75.85 0 0 0-3.25 22.4zM634.64 335.67l-32.1-26.93h225.08l-192.98 26.93zm36.55-47.13v-59.66h25.86l44.76 59.66h45.76l-54.09-72a66.31 66.31 0 0 0-38.43-120.37h-60.41v192.37zm0-155.85h23.86a29.82 29.82 0 1 1 0 59.64h-23.86z"/></svg>