<svg xmlns="http://www.w3.org/2000/svg" fill="#828282" viewBox="0 0 48 48"><path d="m12.359 37.78 1.104-21.743 4.013-.03v3.642h2.755v-3.636l7.609.018v3.618h2.754v-3.612l3.941-.024 1.237 21.766H12.36zm7.845-25.194c0-2.11 1.67-3.826 3.721-3.826h.152c2.052 0 3.721 1.716 3.721 3.826v1.206l-7.594-.016v-1.19zm16.537 2.216a1.061 1.061 0 0 0-1.05-.991l-5.21-.012v-1.213a6.636 6.636 0 0 0-1.875-4.656A6.276 6.276 0 0 0 24.077 6h-.152c-1.71 0-3.318.686-4.528 1.93a6.633 6.633 0 0 0-1.875 4.656v1.183l-5.13-.012a1.07 1.07 0 0 0-1.053.994l-1.333 24.257c-.03.55.386.995.945.992l26.096-.134a.946.946 0 0 0 .949-.995L36.74 14.802z"/></svg>