<svg xmlns="http://www.w3.org/2000/svg" fill="#828282" viewBox="0 0 48 48"><path d="M19.468 40.537c1.5 0 2.717-1.234 2.717-2.757 0-1.522-1.217-2.756-2.717-2.756s-2.717 1.234-2.717 2.756c0 1.523 1.216 2.757 2.717 2.757zm0 2.833c-3.042 0-5.508-2.503-5.508-5.59 0-3.086 2.466-5.589 5.508-5.589s5.508 2.503 5.508 5.59c0 3.086-2.466 5.589-5.508 5.589zm17.249-2.833c1.5 0 2.717-1.234 2.717-2.757 0-1.522-1.217-2.756-2.717-2.756S34 36.258 34 37.78c0 1.523 1.217 2.757 2.717 2.757zm0 2.833c-3.042 0-5.508-2.503-5.508-5.59 0-3.086 2.466-5.589 5.508-5.589s5.508 2.503 5.508 5.59c0 3.086-2.466 5.589-5.508 5.589zM9.15 13.297 6.963 6.832H2.396A1.406 1.406 0 0 1 1 5.416C1 4.634 1.625 4 2.396 4h5.563c.596 0 1.126.384 1.32.956l2.512 7.421.633 1.87-1.95.006a1.397 1.397 0 0 1-1.312-.925 1.53 1.53 0 0 1-.086-.487 1.406 1.406 0 0 1 1.391-1.42l34.6-.095c.935-.002 1.608.91 1.343 1.818l-5.154 17.674a1.398 1.398 0 0 1-1.339 1.014h-23.5a1.397 1.397 0 0 1-1.32-.956L9.15 13.297zM17.413 29h21.462l4.327-14.836-30.778.084L17.413 29zm.955-3.136a.991.991 0 0 1-.984-.998c0-.552.44-1 .983-1l19.282-.006c.543 0 .984.446.985.998 0 .551-.44.999-.984.999l-19.282.007z"/></svg>