<svg xmlns="http://www.w3.org/2000/svg" fill="#828282" viewBox="0 0 48 48"><path d="M3 23.344C3 11.556 12.556 2 24.344 2 36.133 2 45.69 11.556 45.69 23.344c-.01 11.784-9.56 21.334-21.345 21.345C12.556 44.689 3 35.133 3 23.344zM24.344 4.958a18.416 18.416 0 1 0 18.417 18.386C42.734 13.19 34.5 4.968 24.344 4.958z"/><path d="M17.788 20.15c.809-4.22 3.658-7.059 7.158-7.059a6.369 6.369 0 0 1 5.659 3.254l-2.297 2.248a3.944 3.944 0 0 0-3.342-2.07 3.224 3.224 0 0 0-2.81 1.557 4.703 4.703 0 0 0-.73 2.07h7.079l-.483 1.972h-7.01a6.23 6.23 0 0 0-.069.858c-.01.17-.01.342 0 .512h6.744l-.474 2.17H21.23c.059.736.274 1.452.631 2.1a4.013 4.013 0 0 0 3.421 1.971 3.569 3.569 0 0 0 2.86-1.489l1.97 2.662a6.901 6.901 0 0 1-10.745-.73 10.391 10.391 0 0 1-1.627-4.515h-1.666l.483-2.1h.986a5.511 5.511 0 0 1 0-.562 5.915 5.915 0 0 1 0-.808h-1.47l.484-1.972 1.232-.069z"/></svg>