<svg xmlns="http://www.w3.org/2000/svg" fill="#828282" viewBox="0 0 48 48"><path d="M23.756 27.401c-6.3 0-11.409-5.238-11.409-11.7C12.347 9.239 17.455 4 23.756 4c6.3 0 11.409 5.239 11.409 11.7 0 6.463-5.108 11.701-11.409 11.701zm0-2.799c4.793 0 8.68-3.985 8.68-8.901s-3.887-8.902-8.68-8.902c-4.794 0-8.68 3.986-8.68 8.902 0 4.916 3.886 8.901 8.68 8.901zm6.835 5.61.577-.3.592.269c5.61 2.549 9.322 6.46 10.772 11.932L43 43.879H5.024l.454-1.758c1.414-5.473 5.12-9.39 10.748-11.94l.591-.269.577.3a14.287 14.287 0 0 0 13.197 0zm-13.829 2.794c-3.956 1.916-6.67 4.562-8.072 8.074h30.62c-1.424-3.514-4.142-6.16-8.088-8.074a16.948 16.948 0 0 1-14.46 0z"/></svg>