<svg xmlns="http://www.w3.org/2000/svg" viewBox="0 0 48 48" fill="#828282"><g id="Symbols" stroke="none" stroke-width="1" fill="none" fill-rule="evenodd"><g transform="matrix(1.8 0 0 1.8 -11 4)" id="icons-/-nav-/-heart" fill="#828282"><path d="M25.865.13a6.9 6.9 0 0 0-5.97 3.334 6.904 6.904 0 0 0-7.763-3.23A6.925 6.925 0 0 0 7 6.91C6.905 15.884 19.677 24 19.677 24s12.94-7.84 13.037-16.816C32.766 3.34 29.7.182 25.865.129Zm-.92 17.445a42.32 42.32 0 0 1-5.245 4.213 42.323 42.323 0 0 1-5.153-4.324c-2.628-2.613-5.752-6.562-5.71-10.535a5.119 5.119 0 0 1 5.141-5.086 5.038 5.038 0 0 1 4.33 2.547l1.549 2.668 1.606-2.634a5.038 5.038 0 0 1 4.383-2.454 5.12 5.12 0 0 1 5.03 5.195c-.041 3.973-3.249 7.854-5.932 10.41Z" id="path-1"/></g></g></svg>