<svg width="85" height="24" fill="none" xmlns="http://www.w3.org/2000/svg"><g clip-path="url('#clip0_128_61')"><path fill-rule="evenodd" clip-rule="evenodd" d="m0 2 14.413 13.515V2.592h3.106V23L3.106 9.317v13.058H0V2Zm49.094.59 5.7 7.21 5.698-7.21 4.015.001-7.725 9.654 7.725 10.13h-4.015l-5.699-7.52-5.7 7.52H45.08l7.725-10.131L45.08 2.59h4.015Zm-9.25.002v3.064H28.203v5.258h10.58v3.036h-10.58v5.361h11.64v3.064H25.097V2.592h14.747ZM85.56 2.59v3.064h-7.123v16.719h-3.105V5.652h-7.123V2.59h17.35Z" fill="#B78B20"/></g><defs><clipPath id="clip0_128_61"><path fill="#fff" d="M0 0h85v24H0z"/></clipPath></defs></svg>