<svg xmlns="http://www.w3.org/2000/svg" width="24" height="24" fill="none"><path fill="#000" fill-rule="evenodd" d="M13.16 0c1.454.002 2.151.01 2.77.03l.433.016.585.025c1.277.059 2.15.262 2.913.558a5.886 5.886 0 0 1 2.125 1.384A5.883 5.883 0 0 1 23.37 4.14c.297.763.5 1.636.558 2.913l.026.585.015.432c.02.62.028 1.317.03 2.77l.001.845v1.475a92.78 92.78 0 0 1-.03 2.77l-.016.432-.026.585c-.058 1.277-.261 2.15-.558 2.913a5.883 5.883 0 0 1-1.384 2.126 5.883 5.883 0 0 1-2.125 1.384c-.764.296-1.636.5-2.913.558l-.585.025-.433.016a92.78 92.78 0 0 1-2.77.03h-2.32a92.778 92.778 0 0 1-2.771-.03l-.433-.016a121.99 121.99 0 0 1-.584-.025c-1.278-.059-2.15-.262-2.913-.558a5.883 5.883 0 0 1-2.126-1.384A5.883 5.883 0 0 1 .629 19.86c-.297-.763-.5-1.636-.558-2.913l-.026-.585-.015-.432A92.806 92.806 0 0 1 0 13.16v-2.322c.002-1.453.01-2.15.03-2.77l.015-.432.026-.585c.058-1.277.261-2.15.558-2.913a5.882 5.882 0 0 1 1.384-2.126A5.882 5.882 0 0 1 4.139.63C4.902.333 5.774.13 7.052.071l.584-.025L8.07.03A89.64 89.64 0 0 1 10.839 0h2.321Zm-.02 2.162h-2.28c-1.594.003-2.254.012-2.922.036l-.212.008a114.5 114.5 0 0 0-.576.025c-1.17.054-1.805.25-2.228.414a3.71 3.71 0 0 0-1.38.897c-.42.42-.68.82-.898 1.38-.164.423-.36 1.059-.413 2.229l-.025.576-.008.212c-.025.667-.034 1.327-.036 2.921v2.28c.002 1.594.011 2.253.036 2.921l.008.212.025.576c.053 1.17.249 1.806.413 2.229.218.56.478.96.898 1.38.42.42.82.68 1.38.897.423.165 1.058.36 2.228.413 1.097.05 1.528.066 3.71.07h2.28c2.181-.004 2.612-.02 3.709-.07 1.17-.053 1.805-.248 2.228-.413a3.71 3.71 0 0 0 1.38-.897c.42-.42.68-.82.898-1.38.164-.423.36-1.059.413-2.229l.025-.576.009-.212c.024-.668.033-1.327.035-2.921v-2.28c-.002-1.594-.011-2.254-.035-2.921l-.009-.212a110.92 110.92 0 0 0-.025-.576c-.053-1.17-.249-1.806-.413-2.229a3.717 3.717 0 0 0-.898-1.38 3.71 3.71 0 0 0-1.38-.897c-.423-.165-1.058-.36-2.228-.414l-.576-.025-.212-.008c-.668-.024-1.327-.033-2.921-.036ZM12 5.837a6.163 6.163 0 1 1 0 12.326 6.163 6.163 0 0 1 0-12.326ZM12 8a4 4 0 1 0 0 8 4 4 0 0 0 0-8Zm6.406-3.846a1.44 1.44 0 1 1 0 2.88 1.44 1.44 0 0 1 0-2.88Z" clip-rule="evenodd"/></svg>