<svg xmlns="http://www.w3.org/2000/svg" width="24" height="24" fill="none"><path fill="#000" fill-rule="evenodd" d="M-.001 11.999c0 5.084 3.163 9.427 7.627 11.175-.105-.95-.2-2.405.042-3.443.218-.936 1.407-5.964 1.407-5.964s-.36-.719-.36-1.782c0-1.67.968-2.915 2.172-2.915 1.024 0 1.519.77 1.519 1.69 0 1.031-.656 2.57-.994 3.996-.283 1.194.599 2.17 1.776 2.17 2.133 0 3.773-2.25 3.773-5.496 0-2.873-2.065-4.882-5.012-4.882-3.415 0-5.42 2.56-5.42 5.207 0 1.032.399 2.138.894 2.74a.356.356 0 0 1 .083.343c-.09.38-.293 1.194-.333 1.36-.052.22-.173.267-.401.161-1.5-.698-2.437-2.888-2.437-4.648 0-3.785 2.75-7.263 7.93-7.263 4.162 0 7.398 2.967 7.398 6.932 0 4.135-2.608 7.464-6.227 7.464-1.216 0-2.36-.633-2.751-1.379 0 0-.602 2.292-.747 2.853-.271 1.043-1.002 2.349-1.492 3.146 1.123.348 2.316.535 3.553.535 6.627 0 12-5.372 12-12s-5.372-12-12-12-12 5.372-12 12Z" clip-rule="evenodd"/></svg>