<svg xmlns="http://www.w3.org/2000/svg" width="25" height="24" fill="none"><path fill="#000" fill-rule="evenodd" d="M19.706 15.437a1.771 1.771 0 0 1-1.238 1.263c-1.092.3-5.47.3-5.47.3s-4.378 0-5.47-.3a1.77 1.77 0 0 1-1.237-1.263C5.998 14.323 5.998 12 5.998 12s0-2.324.293-3.438a1.772 1.772 0 0 1 1.237-1.263C8.62 7 12.998 7 12.998 7s4.378 0 5.47.298a1.773 1.773 0 0 1 1.238 1.263c.292 1.114.292 3.438.292 3.438s0 2.324-.292 3.438ZM12.998 0c-6.627 0-12 5.372-12 12 0 6.625 5.373 12 12 12 6.628 0 12-5.375 12-12 0-6.628-5.372-12-12-12Zm-1.399 14.141 3.636-2.143-3.636-2.141v4.284Z" clip-rule="evenodd"/></svg>