<svg xmlns="http://www.w3.org/2000/svg" width="24" height="24" fill="none"><path fill="#000" d="M19.347 4.812a5.778 5.778 0 0 1-2.52-3.768A5.915 5.915 0 0 1 16.731 0h-4.128v16.536a3.476 3.476 0 0 1-3.468 3.336 3.468 3.468 0 0 1-3.468-3.468 3.477 3.477 0 0 1 3.468-3.468c.36 0 .696.06 1.02.156V8.88a7.164 7.164 0 0 0-1.02-.072c-4.188 0-7.596 3.408-7.596 7.596a7.582 7.582 0 0 0 3.24 6.216A7.58 7.58 0 0 0 9.135 24c4.188 0 7.596-3.408 7.596-7.596V8.016a9.796 9.796 0 0 0 5.736 1.848V5.736a5.844 5.844 0 0 1-3.132-.924h.012Z"/></svg>