
<svg width="85" height="24" viewBox="0 0 85 24" fill="none" xmlns="http://www.w3.org/2000/svg">
<g clip-path="url(#clip0_128_61)">
<path fill-rule="evenodd" clip-rule="evenodd" d="M0 2L14.4133 15.515V2.59163H17.5188V23L3.10571 9.31678V22.3749H0V2ZM49.0939 2.5906L54.7933 9.79991L60.4924 2.5906L64.5075 2.59137L56.7823 12.2449L64.5075 22.3754H60.4924L54.7931 14.8556L49.0939 22.3744H45.079L52.8041 12.2439L45.079 2.5906H49.0939ZM39.8436 2.59214V5.65621H28.2028V10.9138H38.7831V13.9499H28.2028V19.3113H39.8434V22.3749H25.0974V2.59214H39.8436ZM85.5597 2.58932V5.65288H78.4372V22.3716H75.3317V5.65288H68.2093V2.58932H85.5597Z" fill="#B78B20"/>
</g>
<defs>
<clipPath id="clip0_128_61">
<rect width="85" height="24" fill="white"/>
</clipPath>
</defs>
</svg>
