<svg xmlns="http://www.w3.org/2000/svg" fill="#828282" viewBox="0 0 48 48">
<path d="M23.5 5.75c-9.792 0-17.75 6.583-17.75 14.67 0 4.464 2.43 8.636 6.675 11.441l.614.404v6.647l6.335-4.218.541.092c1.185.201 2.384.302 3.585.303 9.755 0 17.75-6.583 17.75-14.67 0-8.086-7.995-14.669-17.75-14.669zm-1.485 13.826c2.704-.458 4.217-1.485 4.217-2.888 0-1.22-.963-2.017-2.384-2.017a4.74 4.74 0 00-3.502 1.44L18.1 13.726a8.306 8.306 0 015.73-2.274c3.484 0 6.07 2.246 6.07 5.272 0 2.31-1.33 3.85-4.447 5.06v2.522h-3.438v-4.731zm0 10.287v-3.43h3.438v3.439l-3.438-.01zm-11.68 14.192V33.732C5.65 30.412 3 25.6 3 20.419 3 10.811 12.168 3 23.5 3S44 10.811 44 20.42c0 9.608-9.168 17.419-20.5 17.419a24.36 24.36 0 01-3.502-.257l-9.663 6.473z">
</path>
</svg>
