<svg xmlns="http://www.w3.org/2000/svg" id="Calque_1" viewBox="0 0 400 119"><defs><style>.cls-1{fill:#bf0000}</style></defs><path class="cls-1" d="M293.731 99.572H107.83l14.828 14.828 171.073-14.828zM125 39.634v2.185c-3.434-2.185-6.556-3.512-10.77-3.512-13.033 0-22.945 11.863-22.945 26.457s9.912 26.613 22.945 26.613c4.214 0 7.336-1.249 10.77-3.512v2.185h11.472V39.633H125zm-10.771 39.568c-6.4 0-11.082-6.322-11.082-14.282s4.683-14.282 11.082-14.282 10.926 6.322 10.926 14.282c.078 7.961-4.449 14.282-10.926 14.282zM216.779 39.634v29.657c0 5.541-3.824 10.224-9.365 10.224s-9.365-4.683-9.365-10.224V39.634h-11.472v29.657c0 12.175 8.351 22.086 20.448 22.086a18.088 18.088 0 009.756-3.122v1.873h11.394V39.633h-11.394zM323.466 90.128V60.471c0-5.541 3.824-10.224 9.365-10.224s9.365 4.683 9.365 10.224v29.657h11.472V60.471c0-12.175-8.351-22.086-20.448-22.086-3.512.078-6.868 1.093-9.756 3.122v-1.873h-11.472v50.417h11.472v.078z"/><path class="cls-1" d="M58.35 90.128V70.539h8.429L81.451 90.05h14.984L78.719 66.559c3.746-2.654 6.556-6.478 8.039-10.848 1.483-4.37 1.483-9.131.078-13.502a21.709 21.709 0 00-7.882-10.926c-3.746-2.732-8.195-4.214-12.799-4.214H46.332v63.06h12.019zm0-51.041h7.804c1.249 0 2.575.234 3.746.78 1.171.468 2.263 1.249 3.2 2.107.937.937 1.639 1.951 2.107 3.2.468 1.171.78 2.419.78 3.746 0 1.249-.234 2.575-.78 3.746-.468 1.171-1.249 2.263-2.107 3.2-.937.937-1.951 1.639-3.2 2.107-1.171.468-2.419.78-3.746.78H58.35V39.086zM259.079 78.188c-1.093.78-2.497 1.249-3.824 1.249-1.873 0-5.385-1.405-5.385-6.165V51.654h9.756V39.635h-9.756V27.07h-11.472v12.565h-6.087v11.941h6.087V73.35c0 11.238 8.507 18.028 17.014 18.028a23.079 23.079 0 0011.238-3.2l-7.57-9.99zM164.958 63.281l19.667-23.647h-16.077l-13.736 17.638v-34.34h-11.785v67.196h11.785v-20.76l16.858 20.76h16.077l-22.789-26.847z"/><path class="cls-1" d="M285.536 38.385c-13.268 0-22.789 11.629-22.789 26.535 0 15.609 11.941 26.535 23.882 26.535 6.009 0 13.736-2.107 20.291-11.316l-10.146-5.853c-7.804 11.551-20.838 5.697-22.321-5.853h32.935c2.888-18.106-8.819-30.047-21.852-30.047zm9.99 19.979h-20.604c2.419-11.785 18.34-12.487 20.604 0z"/></svg>
